<svg xmlns="http://www.w3.org/2000/svg" width="24" height="25" fill="none">
  <rect width="23" height="23" x=".5" y="1" fill="#fff" rx="3.5"/>
  <path fill="#1565D8" stroke="#1565D8" stroke-width=".3" d="M16.999 12.506v5.022c0 .674-.375 1.198-1.005 1.399a1.408 1.408 0 0 1-.419.068c-2.38.004-4.76.008-7.14 0a1.414 1.414 0 0 1-1.43-1.487c0-3.339.006-6.677-.005-10.016a1.457 1.457 0 0 1 1.436-1.49c2.375 0 4.75-.006 7.126.003a1.418 1.418 0 0 1 1.437 1.52v4.981Zm-9.409-.014v5.022c0 .573.364.922.962.922h6.892c.608 0 .97-.346.97-.928V7.492c0-.583-.36-.929-.969-.929H8.568c-.618 0-.977.343-.977.935l-.001 4.994Z"/>
  <path fill="#1565D8" stroke="#1565D8" stroke-width=".3" d="M15.235 14.207a1.142 1.142 0 0 1-.951 1.1c-.57.097-1.114-.192-1.316-.707-.037-.097-.085-.122-.187-.122-1.2.004-2.399.004-3.598 0a.9.9 0 0 1-.19-.015.291.291 0 0 1-.161-.1.27.27 0 0 1 .006-.346A.292.292 0 0 1 9 13.92a.901.901 0 0 1 .179-.012h3.583c.107 0 .165-.016.21-.13.098-.247.285-.453.527-.58a1.206 1.206 0 0 1 1.475.284c.172.205.264.46.26.724Zm-1.182.55a.61.61 0 0 0 .417-.159.56.56 0 0 0 .177-.394.543.543 0 0 0-.165-.4.587.587 0 0 0-.411-.17.595.595 0 0 0-.418.156.55.55 0 0 0-.172.397.558.558 0 0 0 .572.57Zm-2.345-4.304c.035-.054.073-.105.115-.154.648-.626 1.297-1.251 1.947-1.876a1.08 1.08 0 0 1 .12-.106.294.294 0 0 1 .378.028.273.273 0 0 1 .04.353.722.722 0 0 1-.1.108l-2.223 2.137c-.203.196-.347.196-.549.002-.354-.34-.71-.679-1.06-1.022a.515.515 0 0 1-.13-.197c-.037-.115.037-.24.15-.299a.306.306 0 0 1 .353.058c.285.27.567.542.847.816.041.048.079.098.112.152Zm-1.164 5.724c.48 0 .956-.003 1.434 0 .23 0 .368.176.301.368-.041.12-.147.191-.297.193-.262.002-.524 0-.786 0-.694 0-1.388.003-2.082-.005a.483.483 0 0 1-.26-.088c-.097-.071-.105-.185-.064-.292a.253.253 0 0 1 .096-.128.27.27 0 0 1 .156-.048c.22-.004.442-.003.663-.003l.84.003Z"/>
  <rect width="23" height="23" x=".5" y="1" stroke="#1565D8" rx="3.5"/>
</svg>
