<svg xmlns="http://www.w3.org/2000/svg" width="24" height="25" fill="none">
  <rect width="23" height="23" x=".5" y="1" fill="#fff" rx="3.5"/>
  <g clip-path="url(#a)">
    <path fill="#1565D8" fill-rule="evenodd" d="M15.5 9.438v3.937h-.875V9.437h-1.75a1.313 1.313 0 0 1-1.313-1.312v-1.75H6.75a.875.875 0 0 0-.875.875v10.5a.875.875 0 0 0 .875.875h7a.875.875 0 0 0 .875-.875V16h.875v1.75a1.75 1.75 0 0 1-1.75 1.75h-7A1.75 1.75 0 0 1 5 17.75V7.25A1.75 1.75 0 0 1 6.75 5.5h4.813L15.5 9.438Zm-3.5 5.25a.437.437 0 0 0 .437.438h5.069l-1.004 1.002a.438.438 0 1 0 .62.62l1.75-1.75a.438.438 0 0 0 0-.62l-1.75-1.75a.438.438 0 0 0-.62.62l1.004 1.003h-5.07a.437.437 0 0 0-.437.437Zm-4.247-3.81a.438.438 0 0 1 .31-.128h4.374a.438.438 0 0 1 0 .875H8.064a.438.438 0 0 1-.31-.747Zm0 1.75a.438.438 0 0 0 .31.747h4.374a.438.438 0 0 0 0-.875H8.064a.438.438 0 0 0-.31.128Zm0 1.75a.438.438 0 0 0 .31.747h1.75a.438.438 0 0 0 0-.875h-1.75a.438.438 0 0 0-.31.128Z" clip-rule="evenodd"/>
  </g>
  <rect width="23" height="23" x=".5" y="1" stroke="#1565D8" rx="3.5"/>
  <defs>
    <clipPath id="a">
      <path fill="#fff" d="M4 4.5h16v16H4z"/>
    </clipPath>
  </defs>
</svg>
