<svg width="40" height="40" viewBox="0 0 40 40" fill="none" xmlns="http://www.w3.org/2000/svg">
<g clip-path="url(#clip0_17042_16264)">
<path d="M14.8312 31.3262C14.4131 31.3262 14.003 31.2493 13.6124 31.0978L4.13281 27.418V33.5961C4.13281 34.0901 4.44273 34.5312 4.90757 34.6986L18.9407 39.753V27.5902L17.7445 29.6493C17.1437 30.6837 16.0273 31.3262 14.8312 31.3262Z" fill="#1565D8"/>
<path d="M25.1691 31.3277C23.9729 31.3277 22.8565 30.6851 22.2557 29.6508L21.2812 27.9733V39.7664L35.3478 34.7C35.8126 34.5326 36.1225 34.0915 36.1225 33.5975V27.3203L26.3877 31.0992C25.9972 31.2508 25.5872 31.3277 25.1691 31.3277Z" fill="#1565D8"/>
<path d="M12.032 14.8084C11.3337 13.9579 10.7691 12.9941 10.3694 11.9492L7.24609 13.0741L12.032 14.8084Z" fill="#1565D8"/>
<path d="M32.7749 13.0658L29.6429 11.918C29.2426 12.9745 28.6738 13.9488 27.9688 14.8074L32.7749 13.0658Z" fill="#1565D8"/>
<path d="M39.8541 22.0808L35.9651 15.2932C35.6986 14.828 35.1361 14.6217 34.632 14.8044L20.0003 20.1054L5.36867 14.8044C4.86461 14.6217 4.30212 14.828 4.03556 15.2932L0.159286 22.0586C0.0520998 22.2457 -0.0086806 22.4584 0.00100676 22.6738C0.021319 23.1243 0.30444 23.5023 0.704591 23.6576L14.4309 28.9859C14.5615 29.0366 14.6965 29.0608 14.8298 29.0608C15.2132 29.0608 15.5817 28.8601 15.7841 28.5115L20.0003 20.9681L24.2165 28.5115C24.419 28.86 24.7873 29.0608 25.1707 29.0608C25.304 29.0608 25.439 29.0366 25.5696 28.9859L39.2959 23.6576C39.5955 23.5413 39.8295 23.3001 39.9367 22.9971C40.0441 22.6943 40.0139 22.3597 39.8541 22.0808Z" fill="#1565D8"/>
<path d="M20.0004 16.3206C24.4354 16.3206 28.0435 12.7125 28.0435 8.27747C28.0435 3.84245 24.4354 0.234375 20.0004 0.234375C15.5654 0.234375 11.9573 3.84253 11.9573 8.27755C11.9573 12.7126 15.5654 16.3206 20.0004 16.3206ZM16.6718 9.50894C16.2142 9.05129 16.2142 8.30934 16.6718 7.85169C17.1295 7.39404 17.8715 7.39404 18.3291 7.85169L18.9901 8.5127L21.7113 5.79149C22.1689 5.33384 22.9109 5.33384 23.3685 5.79149C23.8262 6.24914 23.8262 6.99108 23.3685 7.44873L19.8187 10.9985C19.5899 11.2273 19.29 11.3418 18.9901 11.3418C18.6903 11.3418 18.3903 11.2274 18.1616 10.9986L16.6718 9.50894Z" fill="#1565D8"/>
</g>
<defs>
<clipPath id="clip0_17042_16264">
<rect width="40" height="40" fill="white"/>
</clipPath>
</defs>
</svg>
