<svg width="16" height="16" viewBox="0 0 16 16" fill="none" xmlns="http://www.w3.org/2000/svg">
<g clip-path="url(#clip0_20337_86970)">
<path d="M12.6666 1.334H6.63731C6.12945 1.33243 5.62805 1.44772 5.17188 1.67095C4.71571 1.89418 4.31702 2.21936 4.00664 2.62133L0.139974 7.59133C0.048938 7.70836 -0.000488281 7.8524 -0.000488281 8.00067C-0.000488281 8.14893 0.048938 8.29297 0.139974 8.41L4.00664 13.38C4.31702 13.782 4.71571 14.1072 5.17188 14.3304C5.62805 14.5536 6.12945 14.6689 6.63731 14.6673H12.6666C13.5504 14.6663 14.3976 14.3147 15.0225 13.6899C15.6474 13.065 15.9989 12.2177 16 11.334V4.66733C15.9989 3.7836 15.6474 2.93637 15.0225 2.31148C14.3976 1.68659 13.5504 1.33506 12.6666 1.334ZM11.8046 9.52933C11.8683 9.59083 11.9191 9.6644 11.954 9.74573C11.989 9.82707 12.0074 9.91455 12.0081 10.0031C12.0089 10.0916 11.992 10.1794 11.9585 10.2613C11.925 10.3432 11.8755 10.4177 11.8129 10.4803C11.7503 10.5429 11.6759 10.5924 11.5939 10.6259C11.512 10.6594 11.4242 10.6763 11.3357 10.6755C11.2472 10.6747 11.1597 10.6563 11.0784 10.6214C10.997 10.5865 10.9235 10.5357 10.862 10.472L9.33331 8.94333L7.80464 10.472C7.67891 10.5934 7.51051 10.6606 7.33571 10.6591C7.16091 10.6576 6.9937 10.5875 6.8701 10.4639C6.74649 10.3403 6.67638 10.1731 6.67486 9.99827C6.67334 9.82347 6.74054 9.65507 6.86197 9.52933L8.39064 8.00067L6.86197 6.472C6.74054 6.34627 6.67334 6.17786 6.67486 6.00307C6.67638 5.82827 6.74649 5.66106 6.8701 5.53745C6.9937 5.41385 7.16091 5.34374 7.33571 5.34222C7.51051 5.3407 7.67891 5.4079 7.80464 5.52933L9.33331 7.058L10.862 5.52933C10.9877 5.4079 11.1561 5.3407 11.3309 5.34222C11.5057 5.34374 11.6729 5.41385 11.7965 5.53745C11.9201 5.66106 11.9902 5.82827 11.9918 6.00307C11.9933 6.17786 11.9261 6.34627 11.8046 6.472L10.276 8.00067L11.8046 9.52933Z" fill="#1565D8"/>
</g>
<defs>
<clipPath id="clip0_20337_86970">
<rect width="16" height="16" fill="white"/>
</clipPath>
</defs>
</svg>
