<svg width="16" height="16" viewBox="0 0 16 16" fill="none" xmlns="http://www.w3.org/2000/svg">
<g clip-path="url(#clip0_17042_16219)">
<path d="M3.33325 12.6672H6.27592L15.3713 3.57183C15.7608 3.18128 15.9796 2.65215 15.9796 2.1005C15.9796 1.54885 15.7608 1.01972 15.3713 0.629163C14.975 0.250425 14.448 0.0390625 13.8999 0.0390625C13.3518 0.0390625 12.8248 0.250425 12.4286 0.629163L3.33325 9.7245V12.6672ZM4.66659 10.2765L13.3713 1.57183C13.5136 1.4358 13.703 1.35989 13.8999 1.35989C14.0968 1.35989 14.2862 1.4358 14.4286 1.57183C14.5685 1.71217 14.6471 1.90229 14.6471 2.1005C14.6471 2.2987 14.5685 2.48882 14.4286 2.62916L5.72392 11.3338H4.66659V10.2765Z" fill="#1565D8"/>
<path d="M15.7473 5.08133L14.6667 6.162V10.6667H10.6667V14.6667H1.33333V2C1.33333 1.82319 1.40357 1.65362 1.5286 1.5286C1.65362 1.40357 1.82319 1.33333 2 1.33333H9.83867L10.9193 0.252667C11.0167 0.162416 11.1193 0.0780441 11.2267 0L2 0C1.46957 0 0.960859 0.210714 0.585786 0.585786C0.210714 0.960859 0 1.46957 0 2L0 16H12.276L16 12.276V4.774C15.9218 4.88124 15.8374 4.98386 15.7473 5.08133ZM12 14.3907V12H14.3907L12 14.3907Z" fill="#1565D8"/>
</g>
<defs>
<clipPath id="clip0_17042_16219">
<rect width="16" height="16" fill="white"/>
</clipPath>
</defs>
</svg>
