<svg xmlns="http://www.w3.org/2000/svg" width="12" height="12" fill="none">
  <g clip-path="url(#a)">
    <path fill="#1565D8" d="M7 12a.5.5 0 0 1-.3-.1l-2-1.5a.5.5 0 0 1-.2-.4V7.19L1 3.24A1.95 1.95 0 0 1 2.44 0h7.1A1.95 1.95 0 0 1 11 3.24L7.5 7.2v4.31a.5.5 0 0 1-.5.5ZM5.5 9.75l1 .75V7a.5.5 0 0 1 .13-.33l3.63-4.09A.95.95 0 0 0 9.55 1h-7.1a.95.95 0 0 0-.71 1.58l3.63 4.09c.09.09.13.2.13.33v2.75Z"/>
  </g>
  <defs>
    <clipPath id="a">
      <path fill="#fff" d="M0 0h12v12H0z"/>
    </clipPath>
  </defs>
</svg>
