<svg width="25" height="24" viewBox="0 0 25 24" fill="none" xmlns="http://www.w3.org/2000/svg">
<path d="M21.3916 6.65129H18.1365V4.95845C18.1365 2.2211 15.6151 0 12.5067 0C9.39828 0 6.87688 2.2211 6.87688 4.95845V6.65129H3.62173C1.90078 6.65129 0.5 7.91192 0.5 9.46068V21.1905C0.5 22.7393 1.90078 23.9999 3.62173 23.9999H21.3783C23.0992 23.9999 24.5 22.7393 24.5 21.1905V9.47269C24.5 7.92392 23.0992 6.6633 21.3783 6.6633L21.3916 6.65129ZM8.97137 4.95845C8.97137 3.25361 10.5589 1.87293 12.52 1.87293C14.4811 1.87293 16.0686 3.25361 16.0686 4.95845V6.65129H8.98472V4.95845H8.97137ZM22.4455 21.1905C22.4455 21.7067 21.9786 22.127 21.4049 22.127H3.64842C3.07476 22.127 2.60784 21.7067 2.60784 21.1905V9.47269C2.60784 8.95643 3.07476 8.53622 3.64842 8.53622H21.4049C21.9786 8.53622 22.4455 8.95643 22.4455 9.47269V21.2025V21.1905ZM6.5567 17.2766C6.5567 17.6247 6.86353 17.9009 7.25042 17.9009C7.6373 17.9009 7.94414 17.6247 7.94414 17.2766V16.8804C8.75792 16.6162 9.34491 15.9319 9.34491 15.1035C9.34491 14.059 8.39772 13.2065 7.25042 13.2065C6.86353 13.2065 6.5567 12.9304 6.5567 12.5822C6.5567 12.2341 6.87688 11.9579 7.25042 11.9579C7.53057 11.9579 7.75737 12.09 7.86409 12.3301C8.01084 12.6543 8.4244 12.7983 8.7846 12.6663C9.1448 12.5342 9.30489 12.162 9.15814 11.8379C8.93135 11.3456 8.49111 10.9854 7.95748 10.8174V10.3851C7.95748 10.037 7.65064 9.76083 7.26376 9.76083C6.87688 9.76083 6.57004 10.037 6.57004 10.3851V10.8174C5.75626 11.0815 5.16926 11.7658 5.16926 12.5942C5.16926 13.6388 6.11646 14.4792 7.26376 14.4792C7.65064 14.4792 7.95748 14.7673 7.95748 15.1155C7.95748 15.4637 7.6373 15.7398 7.26376 15.7398C6.99694 15.7398 6.71679 15.5837 6.61006 15.3556C6.44997 15.0434 6.03641 14.8994 5.68955 15.0434C5.34269 15.1875 5.1826 15.5597 5.34269 15.8719C5.58282 16.3521 6.03641 16.7003 6.57004 16.8804V17.2886L6.5567 17.2766ZM10.7857 19.3776C10.3988 19.3776 10.092 19.6537 10.092 20.0019V20.254C10.092 20.6022 10.3988 20.8783 10.7857 20.8783C11.1726 20.8783 11.4794 20.6022 11.4794 20.254V20.0019C11.4794 19.6537 11.1726 19.3776 10.7857 19.3776ZM19.177 17.4566C18.7902 17.4566 18.4833 17.7328 18.4833 18.0809V20.254C18.4833 20.6022 18.7902 20.8783 19.177 20.8783C19.5639 20.8783 19.8708 20.6022 19.8708 20.254V18.0809C19.8708 17.7328 19.5639 17.4566 19.177 17.4566ZM13.5873 17.4566C13.2004 17.4566 12.8936 17.7328 12.8936 18.0809V20.254C12.8936 20.6022 13.2004 20.8783 13.5873 20.8783C13.9742 20.8783 14.281 20.6022 14.281 20.254V18.0809C14.281 17.7328 13.9742 17.4566 13.5873 17.4566ZM19.177 12.138H16.0286C15.6417 12.138 15.3349 12.4141 15.3349 12.7623C15.3349 13.1105 15.6417 13.3866 16.0286 13.3866H17.5361L15.4683 15.2475H11.933C11.7463 15.2475 11.5728 15.3196 11.4394 15.4276L6.58338 19.7978C6.31656 20.0499 6.31656 20.4461 6.58338 20.6862C6.71679 20.8063 6.90356 20.8663 7.07699 20.8663C7.25042 20.8663 7.43719 20.8063 7.5706 20.6862L12.2265 16.4962H15.7618C15.9486 16.4962 16.122 16.4241 16.2554 16.3161L18.4833 14.3111V15.5597C18.4833 15.9079 18.7902 16.184 19.177 16.184C19.5639 16.184 19.8708 15.9079 19.8708 15.5597V12.7623C19.8708 12.4141 19.5639 12.138 19.177 12.138ZM16.3755 17.4566C15.9886 17.4566 15.6818 17.7328 15.6818 18.0809V20.254C15.6818 20.6022 15.9886 20.8783 16.3755 20.8783C16.7624 20.8783 17.0692 20.6022 17.0692 20.254V18.0809C17.0692 17.7328 16.7624 17.4566 16.3755 17.4566Z" fill="#1565D8"/>
</svg>
