<svg width="30" height="31" viewBox="0 0 30 31" fill="none" xmlns="http://www.w3.org/2000/svg">
<path d="M25.9328 13.5791L25.927 13.5557L22.6399 5.20312C22.4934 4.73145 22.0569 4.40625 21.5617 4.40625H8.23752C7.73948 4.40625 7.29709 4.7373 7.15647 5.21484L4.08323 13.4824L4.07444 13.5029L4.06858 13.5264C4.03049 13.6699 4.01877 13.8164 4.03928 13.96C4.03635 14.0068 4.03342 14.0537 4.03342 14.1006V24.8203C4.0342 25.2925 4.22211 25.7451 4.55599 26.079C4.88988 26.4129 5.34249 26.6008 5.81467 26.6016H24.1897C25.1711 26.6016 25.9709 25.8018 25.9739 24.8203V14.1006C25.9739 14.0625 25.9739 14.0244 25.9709 13.9922C25.9826 13.8486 25.9709 13.7109 25.9328 13.5791ZM17.2668 12.3193L17.258 12.7793C17.2346 14.0947 16.3264 14.9795 14.9992 14.9795C14.3518 14.9795 13.7951 14.7715 13.3938 14.376C12.9924 13.9805 12.7727 13.4297 12.761 12.7793L12.7522 12.3193H6.72288L9.05198 6.65625H20.7473L23.1408 12.3193H17.2668ZM6.28049 14.5693H10.8889C11.6008 16.2422 13.1155 17.2295 15.0022 17.2295C15.9895 17.2295 16.9065 16.9541 17.6477 16.4326C18.2981 15.9756 18.8049 15.3369 19.133 14.5693H23.718V24.3516H6.28049V14.5693Z" fill="#00A3FF"/>
</svg>
