<svg width="24" height="24" viewBox="0 0 24 24" fill="none" xmlns="http://www.w3.org/2000/svg">
<g clip-path="url(#clip0_17042_21172)">
<path d="M17.533 11.3336C17.2203 8.7822 15.2067 6.77361 12.6545 6.46738C12.4347 6.4423 12.2138 6.42973 11.9926 6.42969C9.73702 6.43316 7.70611 7.79628 6.84839 9.88236C5.99068 11.9684 6.47541 14.3659 8.07619 15.9549C8.92744 16.7701 9.41494 17.8935 9.42886 19.0721V19.7158H14.5717V19.0688C14.5756 17.9125 15.046 16.8068 15.8763 16.002C17.1304 14.792 17.7438 13.0636 17.533 11.3338V11.3336H17.533Z" fill="#FF9900"/>
<path d="M12.0013 23.9978C12.546 23.9972 13.0314 23.654 13.2136 23.1406H10.7891C10.9712 23.654 11.4566 23.9972 12.0013 23.9978Z" fill="#FF9900"/>
<path d="M9.85742 21.856C9.85775 22.0926 10.0494 22.2843 10.286 22.2846H13.7146C13.9512 22.2843 14.1428 22.0926 14.1432 21.856V20.5703H9.85742V21.856Z" fill="#FF9900"/>
<path d="M11.9997 3.85716C12.4731 3.85716 12.8569 3.47339 12.8569 3V0.857156C12.8569 0.383766 12.4731 0 11.9997 0C11.5263 0 11.1426 0.383766 11.1426 0.857156V3C11.1426 3.47339 11.5263 3.85716 11.9997 3.85716Z" fill="#FF9900"/>
<path d="M4.7662 5.97844C5.10539 6.30239 5.6393 6.30239 5.97848 5.97844C6.13927 5.8177 6.22959 5.59964 6.22959 5.3723C6.22959 5.14495 6.13927 4.92689 5.97848 4.76616L4.46316 3.25111C4.30247 3.09033 4.08445 3 3.85716 3C3.62986 3 3.41184 3.09033 3.25111 3.25111C3.09033 3.4118 3 3.62981 3 3.85716C3 4.0845 3.09033 4.30247 3.25111 4.4632L4.7662 5.97844Z" fill="#FF9900"/>
<path d="M3.85716 11.9978C3.85716 11.5244 3.47339 11.1406 3 11.1406H0.857156C0.383953 11.1411 0.00046875 11.5246 0 11.9978C0.00046875 12.471 0.383953 12.8545 0.857156 12.8549H3C3.47339 12.8549 3.85716 12.4712 3.85716 11.9978Z" fill="#FF9900"/>
<path d="M23.1426 11.1406H20.9997C20.5263 11.1406 20.1426 11.5244 20.1426 11.9978C20.1426 12.4712 20.5263 12.8549 20.9997 12.8549H23.1426C23.616 12.8549 23.9997 12.4712 23.9997 11.9978C23.9997 11.5244 23.616 11.1406 23.1426 11.1406Z" fill="#FF9900"/>
<path d="M19.233 5.97842L20.748 4.46314C20.9645 4.24662 21.0491 3.93106 20.9698 3.63528C20.8906 3.3395 20.6596 3.1085 20.3638 3.02923C20.068 2.94997 19.7524 3.03453 19.5359 3.25104L18.0206 4.76609C17.8599 4.92683 17.7695 5.14489 17.7695 5.37223C17.7695 5.59958 17.8599 5.81764 18.0206 5.97837C18.3599 6.30237 18.8938 6.30237 19.233 5.97842Z" fill="#FF9900"/>
</g>
<defs>
<clipPath id="clip0_17042_21172">
<rect width="24" height="24" fill="white"/>
</clipPath>
</defs>
</svg>
