<svg width="40" height="40" viewBox="0 0 40 40" fill="none" xmlns="http://www.w3.org/2000/svg">
<path d="M34.9396 26.4707L32.2337 21.2942C31.5867 21.2354 30.9984 20.8824 30.5867 20.353L25.2926 13.4118C24.7043 12.6471 24.6455 11.706 25.0573 10.8236C25.2926 10.2942 25.7043 9.94125 26.2337 9.70595L25.2926 7.94124C24.6455 6.64713 23.0573 6.17654 21.7631 6.8236L20.1749 7.64713L18.9396 5.29419C18.469 4.47066 17.469 4.11772 16.5867 4.5883L8.46902 8.8236C7.64549 9.29419 7.29255 10.2942 7.76314 11.1765L8.23373 12.0589C8.05726 12.0589 7.82197 12.0001 7.64549 12.0001C3.52785 11.1765 1.76314 8.64713 2.11608 6.76477C2.52785 4.52948 5.64549 3.17654 9.05726 3.8236C10.4102 4.05889 11.7043 4.5883 12.6455 5.35301L13.7631 4.76477C12.5278 3.76477 11.1161 3.05889 9.23373 2.70595C5.17491 1.94124 1.46902 3.70595 0.939612 6.5883C0.351377 9.76477 3.88079 12.5883 7.4102 13.1177C7.88079 13.1765 8.35138 13.2354 8.88079 13.2354L8.99844 13.4707L7.4102 14.2942C6.11608 14.9412 5.64549 16.5295 6.29255 17.8236L15.9984 36.2942C16.7043 37.5883 18.2926 38.0589 19.5278 37.4118L33.8808 30.0001C35.1161 29.353 35.6455 27.7648 34.9396 26.4707ZM15.3514 12.0589C14.822 12.353 14.1749 12.353 13.6455 12.0589C13.9396 11.8824 14.2337 11.6471 14.5278 11.353C14.7631 11.1177 14.7631 10.7648 14.5278 10.5295C14.2926 10.2942 13.8808 10.2942 13.7043 10.5295C13.469 10.7648 13.1749 11.0001 12.822 11.1765C12.4102 10.2942 12.7631 9.23536 13.6455 8.76477C14.5278 8.29419 15.7043 8.64713 16.1749 9.52948C16.5867 10.4707 16.2337 11.5883 15.3514 12.0589ZM18.4102 23.2942C17.7043 23.6471 16.8808 23.353 16.5278 22.706C16.1749 22.0001 16.4102 21.1765 17.1161 20.8236C17.822 20.4707 18.6455 20.7648 18.9984 21.4118C19.1161 21.6471 19.1749 21.8236 19.1749 22.0589C19.1749 22.5295 18.8808 23.0589 18.4102 23.2942ZM20.7043 29.5295C20.2926 29.4707 20.0573 29.0589 20.1749 28.706L22.2926 19.1765C22.3514 18.7648 22.7631 18.5295 23.1161 18.6471C23.469 18.706 23.7043 19.1177 23.6455 19.4707L21.5278 29.0001C21.469 29.353 21.1161 29.6471 20.7043 29.5295ZM26.5278 27.706C25.822 28.0589 24.9984 27.7648 24.6455 27.1177C24.2926 26.4118 24.5867 25.5883 25.2337 25.2354C25.9396 24.8824 26.7631 25.1765 27.1161 25.8236C27.469 26.4707 27.1749 27.353 26.5278 27.706Z" fill="#1565D8"/>
<path d="M37.8235 10.6464H36.8235V3.94049C36.8235 2.99931 36.0588 2.17578 35.0588 2.17578H29.8823C28.9411 2.17578 28.1176 2.94049 28.1176 3.94049V10.6464H27.1176C26.0588 10.6464 25.4705 11.8817 26.1176 12.7052L31.4117 19.6464C31.9411 20.2934 32.9411 20.2934 33.4117 19.6464L38.7058 12.7052C39.4705 11.8817 38.8823 10.6464 37.8235 10.6464Z" fill="#1565D8"/>
</svg>
