<svg width="25" height="24" viewBox="0 0 25 24" fill="none" xmlns="http://www.w3.org/2000/svg">
<path d="M23.5638 13.4895H17.3822V12.5526C17.3822 12.036 16.9621 11.6156 16.4459 11.6156C15.9298 11.6156 15.5097 12.036 15.5097 12.5526V13.4895H14.5735C14.0573 13.4895 13.6372 13.9099 13.6372 14.4264C13.6372 14.9429 14.0573 15.3634 14.5735 15.3634H15.5097V16.3003C15.5097 16.8168 15.9298 17.2372 16.4459 17.2372C16.9621 17.2372 17.3822 16.8168 17.3822 16.3003V15.3634H23.5638C24.0799 15.3634 24.5 14.9429 24.5 14.4264C24.5 13.9099 24.0799 13.4895 23.5638 13.4895ZM20.755 7.65165V8.58859H14.5735C14.0573 8.58859 13.6372 9.00901 13.6372 9.52552C13.6372 10.042 14.0573 10.4625 14.5735 10.4625H20.755V11.3994C20.755 11.9159 21.1751 12.3363 21.6913 12.3363C22.2074 12.3363 22.6275 11.9159 22.6275 11.3994V10.4625H23.5638C24.0799 10.4625 24.5 10.042 24.5 9.52552C24.5 9.00901 24.0799 8.58859 23.5638 8.58859H22.6275V7.65165C22.6275 7.13513 22.2074 6.71471 21.6913 6.71471C21.1751 6.71471 20.755 7.13513 20.755 7.65165ZM9.6642 17.5736C10.1443 17.5736 10.5284 17.1892 10.5284 16.7087V16.1682C11.5367 15.8078 12.2569 14.8589 12.2569 13.7297C12.2569 12.3003 11.0926 11.1231 9.6642 11.1231C9.18408 11.1231 8.79998 10.7387 8.79998 10.2583C8.79998 9.77778 9.18408 9.39339 9.6642 9.39339C10.0123 9.39339 10.2884 9.57357 10.4204 9.8979C10.6004 10.3423 11.1166 10.5465 11.5487 10.3544C11.9928 10.1622 12.1968 9.65765 12.0048 9.22522C11.7167 8.54054 11.1766 8.06006 10.5164 7.83183V7.23123C10.5164 6.75075 10.1323 6.36636 9.6522 6.36636C9.17207 6.36636 8.78798 6.75075 8.78798 7.23123V7.83183C7.77972 8.19219 7.05953 9.14114 7.05953 10.2703C7.05953 11.6997 8.22383 12.8649 9.6522 12.8649C10.1323 12.8649 10.5164 13.2492 10.5164 13.7297C10.5164 14.2102 10.1323 14.5946 9.6522 14.5946C9.31611 14.5946 8.98003 14.3784 8.83599 14.0661C8.64394 13.6336 8.12781 13.4294 7.6957 13.6336C7.26359 13.8258 7.07154 14.3423 7.26359 14.7748C7.55166 15.4354 8.12781 15.9159 8.78798 16.1562V16.7087C8.78798 17.1892 9.17207 17.5736 9.6522 17.5736H9.6642ZM18.8826 18.1742C17.9583 17.6336 16.83 17.6697 15.9418 18.2462C15.7378 18.3784 15.5217 18.5105 15.3056 18.6186C14.3694 19.0991 13.7813 20.0601 13.7813 21.1652C13.7813 21.6817 13.3611 22.1021 12.845 22.1021H10.9725C10.4564 22.1021 10.0363 21.6817 10.0363 21.1171C10.0363 20.0601 9.44814 19.0991 8.51191 18.6186C8.29585 18.4985 8.07979 18.3784 7.86374 18.2462C7.39562 17.9459 6.86748 17.7898 6.32735 17.7898C5.84722 17.7898 5.3551 17.9219 4.92299 18.1742L4.71893 18.2943C4.50288 18.4144 4.25081 18.4504 4.01075 18.3904C3.77069 18.3303 3.56664 18.1742 3.44661 17.958L2.51037 16.3363C2.39034 16.1201 2.35433 15.8679 2.41434 15.6276C2.47436 15.3874 2.6304 15.1832 2.84645 15.0631L3.0145 14.967C3.93873 14.4264 4.47887 13.4294 4.41886 12.3604C4.41886 12.2402 4.41886 12.1201 4.41886 12C4.41886 11.8799 4.41886 11.7598 4.41886 11.6396C4.47887 10.5706 3.95074 9.57357 3.0145 9.03303L2.84645 8.93694C2.40234 8.67267 2.2463 8.10811 2.49837 7.65165L3.43461 6.03003C3.68667 5.58559 4.26282 5.42943 4.71893 5.68168L4.92299 5.8018C5.84722 6.33033 6.96351 6.30631 7.86374 5.72973C8.06779 5.5976 8.28385 5.46546 8.51191 5.35736C9.44814 4.87688 10.0363 3.91592 10.0363 2.81081C10.0363 2.29429 10.4564 1.87387 10.9725 1.87387H12.845C13.3611 1.87387 13.7813 2.29429 13.7813 2.85886C13.7813 3.91591 14.3694 4.87688 15.3056 5.35736C15.5217 5.46546 15.7378 5.5976 15.9418 5.72973C16.83 6.30631 17.9583 6.34234 18.8826 5.8018L19.0866 5.68168C19.2427 5.5976 19.4107 5.57357 19.5667 5.57357V3.68769C19.0746 3.68769 18.5825 3.79579 18.1384 4.06006L17.9343 4.18018C17.6222 4.36036 17.2501 4.34835 16.9501 4.15615C16.686 3.98799 16.4219 3.83183 16.1459 3.68769C15.8338 3.51952 15.6417 3.20721 15.6417 2.81081C15.6417 1.26126 14.3814 0 12.833 0H10.9605C9.41214 0 8.15181 1.26126 8.15181 2.85886C8.15181 3.20721 7.95976 3.53153 7.64768 3.68769C7.37161 3.83183 7.10755 3.98799 6.84348 4.15615C6.5554 4.34835 6.1593 4.36036 5.85923 4.18018L5.65517 4.06006C4.31083 3.27928 2.59439 3.74775 1.81419 5.09309L0.87795 6.71471C0.0977507 8.06006 0.56587 9.78979 1.91021 10.5586L2.07826 10.6547C2.39034 10.8348 2.57038 11.1712 2.54638 11.5195C2.54638 11.6757 2.53437 11.8318 2.53437 12C2.53437 12.1682 2.53437 12.3243 2.54638 12.4805C2.57038 12.8288 2.37833 13.1772 2.07826 13.3453L1.91021 13.4414C1.26205 13.8138 0.793929 14.4264 0.60188 15.1471C0.409831 15.8679 0.505855 16.6366 0.87795 17.2853L1.81419 18.9069C2.18629 19.5556 2.79844 20.024 3.51863 20.2162C4.25081 20.4084 5.00701 20.3123 5.65517 19.9399L5.85923 19.8198C6.1593 19.6396 6.5434 19.6516 6.84348 19.8438C7.10755 20.012 7.37161 20.1682 7.64768 20.3123C7.95976 20.4685 8.15181 20.7928 8.15181 21.1892C8.15181 22.7387 9.41214 24 10.9605 24H12.833C14.3814 24 15.6417 22.7387 15.6417 21.1411C15.6417 20.7928 15.8338 20.4685 16.1579 20.3003C16.4339 20.1562 16.698 20 16.9621 19.8318C17.2501 19.6396 17.6342 19.6276 17.9463 19.8078L18.1504 19.9159C18.5945 20.1682 19.0746 20.2883 19.5787 20.2883V18.4024C19.4107 18.4024 19.2427 18.3784 19.0866 18.2943L18.8826 18.1862V18.1742Z" fill="#1565D8"/>
</svg>
