<svg width="25" height="24" viewBox="0 0 25 24" fill="none" xmlns="http://www.w3.org/2000/svg">
<path d="M16.0474 14.448C16.0474 13.428 15.2201 12.6 14.201 12.6C13.1819 12.6 12.3546 13.428 12.3546 14.448C12.3546 15.468 13.1819 16.296 14.201 16.296C15.2201 16.296 16.0474 15.468 16.0474 14.448ZM13.8293 14.448C13.8293 14.244 13.9972 14.076 14.201 14.076C14.4048 14.076 14.5727 14.244 14.5727 14.448C14.5727 14.652 14.4048 14.82 14.201 14.82C13.9972 14.82 13.8293 14.652 13.8293 14.448ZM19.3805 16.296C18.3614 16.296 17.5341 17.124 17.5341 18.144C17.5341 19.164 18.3614 19.992 19.3805 19.992C20.3996 19.992 21.2269 19.164 21.2269 18.144C21.2269 17.124 20.3996 16.296 19.3805 16.296ZM19.3805 18.516C19.1767 18.516 19.0088 18.348 19.0088 18.144C19.0088 17.94 19.1767 17.772 19.3805 17.772C19.5843 17.772 19.7522 17.94 19.7522 18.144C19.7522 18.348 19.5843 18.516 19.3805 18.516ZM19.4524 12.732C19.1287 12.492 18.6611 12.552 18.4213 12.876L13.9732 18.804C13.7214 19.128 13.7934 19.596 14.1171 19.836C14.249 19.932 14.4048 19.98 14.5607 19.98C14.7885 19.98 15.0043 19.872 15.1482 19.68L19.5963 13.752C19.8481 13.428 19.7761 12.96 19.4524 12.72V12.732ZM8.21825 5.436C8.63788 5.436 8.97359 5.772 8.97359 6.192C8.97359 6.612 9.30929 6.948 9.72893 6.948C10.1486 6.948 10.4843 6.612 10.4843 6.192C10.4843 5.208 9.84882 4.368 8.97359 4.056V3.912C8.97359 3.492 8.63788 3.156 8.21825 3.156C7.79861 3.156 7.46291 3.492 7.46291 3.912V4.056C6.58767 4.368 5.95223 5.208 5.95223 6.192C5.95223 7.452 6.97134 8.472 8.23024 8.472C8.64987 8.472 8.98557 8.808 8.98557 9.228C8.98557 9.648 8.64987 9.984 8.23024 9.984C7.81061 9.984 7.4749 9.648 7.4749 9.228C7.4749 8.808 7.13919 8.472 6.71956 8.472C6.29993 8.472 5.96422 8.808 5.96422 9.228C5.96422 10.212 6.59966 11.052 7.4749 11.364V11.508C7.4749 11.928 7.81061 12.264 8.23024 12.264C8.64987 12.264 8.98557 11.928 8.98557 11.508V11.364C9.86081 11.052 10.4963 10.212 10.4963 9.228C10.4963 7.968 9.47715 6.948 8.21825 6.948C7.79861 6.948 7.46291 6.612 7.46291 6.192C7.46291 5.772 7.79861 5.436 8.21825 5.436ZM18.5532 4.404C18.7091 4.56 18.9009 4.632 19.0927 4.632C19.2846 4.632 19.4884 4.56 19.6323 4.404C19.932 4.104 19.932 3.612 19.6323 3.312L19.4045 3.084H22.9414C23.373 3.084 23.7087 2.736 23.7087 2.316C23.7087 1.896 23.361 1.548 22.9414 1.548H19.4045L19.6323 1.32C19.932 1.02 19.932 0.527998 19.6323 0.227998C19.3325 -0.0720017 18.841 -0.0720017 18.5412 0.227998L16.9946 1.776C16.6948 2.076 16.6948 2.568 16.9946 2.868L18.5412 4.416L18.5532 4.404ZM21.6345 4.08C21.3348 4.38 21.3348 4.872 21.6345 5.172L21.8623 5.4H19.0927C18.6611 5.4 18.3254 5.748 18.3254 6.168C18.3254 6.588 18.6731 6.936 19.0927 6.936H21.8623L21.6345 7.164C21.3348 7.464 21.3348 7.956 21.6345 8.256C21.7904 8.412 21.9822 8.484 22.174 8.484C22.3659 8.484 22.5697 8.412 22.7136 8.256L24.2602 6.708C24.5599 6.408 24.5599 5.916 24.2602 5.616L22.7136 4.068C22.4138 3.768 21.9223 3.768 21.6225 4.068L21.6345 4.08ZM2.82297 20.136C3.0148 20.136 3.21862 20.064 3.3625 19.908C3.66223 19.608 3.66223 19.116 3.3625 18.816L3.1347 18.588H6.6716C7.10322 18.588 7.43893 18.24 7.43893 17.82C7.43893 17.4 7.09123 17.052 6.6716 17.052H3.1347L3.3625 16.824C3.66223 16.524 3.66223 16.032 3.3625 15.732C3.06276 15.432 2.57119 15.432 2.27145 15.732L0.724803 17.28C0.425066 17.58 0.425066 18.072 0.724803 18.372L2.27145 19.92C2.42731 20.076 2.61915 20.148 2.81098 20.148L2.82297 20.136ZM6.45579 19.596C6.15605 19.296 5.66448 19.296 5.36474 19.596C5.065 19.896 5.065 20.388 5.36474 20.688L5.59255 20.916H2.82297C2.39135 20.916 2.05564 21.264 2.05564 21.684C2.05564 22.104 2.40333 22.452 2.82297 22.452H5.59255L5.36474 22.68C5.065 22.98 5.065 23.472 5.36474 23.772C5.52061 23.928 5.71244 24 5.90427 24C6.0961 24 6.29993 23.928 6.4438 23.772L7.99045 22.224C8.29019 21.924 8.29019 21.432 7.99045 21.132L6.4438 19.584L6.45579 19.596ZM16.7907 8.568C16.479 8.568 16.1793 8.592 15.8795 8.628C15.9155 8.328 15.9395 8.016 15.9395 7.716C15.9395 3.468 12.4865 0 8.23024 0C3.97396 0 0.520984 3.456 0.520984 7.716C0.520984 11.976 3.97396 15.432 8.23024 15.432C8.54197 15.432 8.8417 15.408 9.14144 15.372C9.10547 15.672 9.08149 15.972 9.08149 16.284C9.08149 20.532 12.5345 24 16.7907 24C21.047 24 24.5 20.544 24.5 16.284C24.5 12.024 21.047 8.568 16.7907 8.568ZM8.23024 13.716C4.92113 13.716 2.23548 11.028 2.23548 7.716C2.23548 4.404 4.92113 1.716 8.23024 1.716C11.5393 1.716 14.225 4.404 14.225 7.716C14.225 8.172 14.165 8.64 14.0571 9.084C12.0069 9.864 10.3764 11.496 9.59704 13.548C9.15343 13.656 8.69783 13.716 8.23024 13.716ZM16.7907 22.284C13.4816 22.284 10.796 19.596 10.796 16.284C10.796 12.972 13.4816 10.284 16.7907 10.284C20.0999 10.284 22.7855 12.972 22.7855 16.284C22.7855 19.596 20.0999 22.284 16.7907 22.284Z" fill="#1565D8"/>
</svg>
