<svg width="24" height="24" viewBox="0 0 24 24" fill="none" xmlns="http://www.w3.org/2000/svg">
<path d="M12.4742 18.4865C11.7659 18.6787 11.0335 18.7628 10.3012 18.7628C5.64282 18.7628 1.86093 14.979 1.86093 10.3183C1.86093 5.65766 5.64282 1.87387 10.3012 1.87387C14.9595 1.87387 18.7414 5.65766 18.7414 10.3183C18.7414 10.8949 18.6813 11.4715 18.5733 12.036C18.4652 12.5405 18.8014 13.045 19.3057 13.1411C19.8099 13.2372 20.3142 12.9129 20.4102 12.4084C20.5543 11.7237 20.6263 11.027 20.6263 10.3183C20.6263 4.62463 15.992 0 10.3132 0C4.63432 0 0 4.62463 0 10.3183C0 16.012 4.63432 20.6366 10.3132 20.6366C11.2136 20.6366 12.1021 20.5165 12.9665 20.2883C13.4707 20.1562 13.7709 19.6396 13.6268 19.1351C13.4947 18.6306 12.9785 18.3303 12.4742 18.4745V18.4865ZM20.2421 16.5165H18.1891L18.4652 16.2402C18.8374 15.8679 18.8374 15.2793 18.4652 14.9069C18.093 14.5465 17.5048 14.5465 17.1446 14.9069L15.2716 16.7808C15.0915 16.961 14.9955 17.2012 14.9955 17.4414C14.9955 17.5375 15.0075 17.6336 15.0435 17.7177C15.0915 17.8619 15.1636 17.994 15.2716 18.1021C15.2716 18.1021 15.2836 18.1021 15.2956 18.1261L17.1566 19.988C17.3367 20.1682 17.5768 20.2643 17.8169 20.2643C18.057 20.2643 18.2971 20.1682 18.4772 19.988C18.8494 19.6156 18.8494 19.027 18.4772 18.6547L18.2011 18.3784H20.2541C21.2866 18.3784 22.1271 19.2192 22.1271 20.2523C22.1271 21.2853 21.2866 22.1261 20.2541 22.1261C19.7379 22.1261 19.3177 22.5465 19.3177 23.0631C19.3177 23.5796 19.7379 24 20.2541 24C22.3192 24 24 22.3183 24 20.2523C24 18.1862 22.3192 16.4925 20.2541 16.4925L20.2421 16.5165ZM10.3012 16.8889C10.8174 16.8889 11.2376 16.4685 11.2376 15.952V14.8348C12.3302 14.4504 13.1106 13.4174 13.1106 12.1922C13.1106 10.6426 11.8499 9.38138 10.3012 9.38138C9.78489 9.38138 9.36468 8.96096 9.36468 8.44444C9.36468 7.92793 9.78489 7.50751 10.3012 7.50751C10.6373 7.50751 10.9495 7.68769 11.1176 7.97598C11.3817 8.42042 11.946 8.57658 12.4022 8.32432C12.8464 8.06006 13.0025 7.4955 12.7504 7.03904C12.4142 6.45045 11.8739 6.04204 11.2496 5.81381V4.6967C11.2496 4.18018 10.8294 3.75976 10.3132 3.75976C9.7969 3.75976 9.37669 4.18018 9.37669 4.6967V5.81381C8.28414 6.1982 7.50375 7.23123 7.50375 8.45646C7.50375 10.006 8.76438 11.2673 10.3132 11.2673C10.8294 11.2673 11.2496 11.6877 11.2496 12.2042C11.2496 12.7207 10.8294 13.1411 10.3132 13.1411C9.97699 13.1411 9.66483 12.961 9.49675 12.6727C9.23262 12.2282 8.66833 12.0721 8.21211 12.3243C7.76788 12.5886 7.61181 13.1532 7.86393 13.6096C8.2001 14.1982 8.74037 14.6066 9.36468 14.8348V15.952C9.36468 16.4685 9.78489 16.8889 10.3012 16.8889Z" fill="#1565D8"/>
</svg>
